<svg width="202" height="80" viewBox="0 0 202 80" fill="none" xmlns="http://www.w3.org/2000/svg">
<mask id="path-1-outside-1_13:10" maskUnits="userSpaceOnUse" x="0" y="0" width="202" height="80" fill="black">
<rect fill="white" width="202" height="80"/>
<path d="M10.81 41.23C9.07 41.23 7.645 40.9 6.535 40.24C5.425 39.61 4.87 38.74 4.87 37.63C4.87 36.64 5.245 35.83 5.995 35.2C6.775 34.6 7.75 34.3 8.92 34.3C9.13 34.3 9.475 34.33 9.955 34.39C10.555 34.48 11.11 34.525 11.62 34.525C12.91 34.525 14.02 34.3 14.95 33.85C15.91 33.43 16.495 32.86 16.705 32.14C16.225 32.41 15.55 32.635 14.68 32.815C13.81 32.995 12.88 33.085 11.89 33.085C9.34 33.085 7.24 32.59 5.59 31.6C3.97 30.61 2.8 29.395 2.08 27.955C1.36 26.485 1 25.045 1 23.635C1 21.295 1.51 19.27 2.53 17.56C3.58 15.85 4.93 14.545 6.58 13.645C8.23 12.745 9.955 12.295 11.755 12.295C12.355 12.295 13.045 12.34 13.825 12.43C14.635 12.52 15.31 12.625 15.85 12.745C16.09 11.935 16.495 11.305 17.065 10.855C17.665 10.405 18.55 10.18 19.72 10.18C21.67 10.18 23.08 11.395 23.95 13.825C24.85 16.255 25.3 19.255 25.3 22.825C25.3 24.505 25.21 26.095 25.03 27.595C24.58 31.825 23.095 35.155 20.575 37.585C18.055 40.015 14.8 41.23 10.81 41.23ZM12.475 26.335C13.405 26.335 14.215 26.005 14.905 25.345C15.595 24.655 15.94 23.845 15.94 22.915C15.94 21.985 15.595 21.175 14.905 20.485C14.215 19.795 13.405 19.45 12.475 19.45C11.545 19.45 10.735 19.795 10.045 20.485C9.385 21.175 9.055 21.985 9.055 22.915C9.055 23.845 9.385 24.655 10.045 25.345C10.735 26.005 11.545 26.335 12.475 26.335Z"/>
<path d="M31.414 33.535C29.494 33.535 28.204 32.41 27.544 30.16C26.914 27.91 26.599 24.805 26.599 20.845C26.599 19.045 26.674 17.545 26.824 16.345C27.004 15.115 27.409 14.08 28.039 13.24C28.699 12.37 29.704 11.935 31.054 11.935C31.894 11.935 32.629 12.13 33.259 12.52C33.919 12.91 34.339 13.465 34.519 14.185C35.179 13.585 36.034 13.135 37.084 12.835C38.134 12.535 39.259 12.385 40.459 12.385C41.419 12.385 42.394 12.625 43.384 13.105C44.404 13.585 45.244 14.245 45.904 15.085C46.594 15.895 46.939 16.78 46.939 17.74C46.939 18.7 46.594 19.555 45.904 20.305C45.244 21.025 44.359 21.385 43.249 21.385C42.889 21.385 42.544 21.34 42.214 21.25C41.914 21.16 41.644 21.07 41.404 20.98C40.804 20.74 40.324 20.62 39.964 20.62C38.794 20.62 37.759 21.085 36.859 22.015C35.989 22.915 35.554 24.085 35.554 25.525C35.554 27.115 35.494 28.435 35.374 29.485C35.254 30.535 34.894 31.48 34.294 32.32C33.694 33.13 32.734 33.535 31.414 33.535Z"/>
<path d="M55.0246 33.535C52.6846 33.535 50.7646 33.01 49.2646 31.96C47.7646 30.88 47.0146 29.335 47.0146 27.325C47.0146 25.585 47.7796 24.205 49.3096 23.185C50.8396 22.165 52.7446 21.655 55.0246 21.655C55.8646 21.655 56.6446 21.73 57.3646 21.88C58.1146 22 58.6246 22.15 58.8946 22.33C58.8946 21.58 58.5796 20.965 57.9496 20.485C57.3196 19.975 56.3596 19.72 55.0696 19.72C54.4996 19.72 54.0346 19.765 53.6746 19.855C53.3146 19.945 52.9246 20.08 52.5046 20.26C52.0846 20.44 51.6946 20.575 51.3346 20.665C51.0046 20.755 50.5546 20.8 49.9846 20.8C49.0246 20.8 48.2746 20.56 47.7346 20.08C47.1946 19.57 46.9246 18.805 46.9246 17.785C46.9246 16.615 47.3446 15.625 48.1846 14.815C49.0546 14.005 50.1346 13.405 51.4246 13.015C52.7146 12.595 54.0046 12.385 55.2946 12.385C57.8446 12.385 59.9746 12.865 61.6846 13.825C63.4246 14.755 64.6996 16 65.5096 17.56C66.3496 19.12 66.7696 20.845 66.7696 22.735C66.7696 23.755 66.6796 24.7 66.4996 25.57C66.3496 26.44 66.1396 27.115 65.8696 27.595C66.2896 27.955 66.6046 28.375 66.8146 28.855C67.0546 29.335 67.1746 29.83 67.1746 30.34C67.1746 31.21 66.8746 31.96 66.2746 32.59C65.7046 33.22 64.9396 33.535 63.9796 33.535C63.2596 33.535 62.6746 33.43 62.2246 33.22C61.7746 33.01 61.2946 32.68 60.7846 32.23C60.0346 32.68 59.2096 33.01 58.3096 33.22C57.4396 33.43 56.3446 33.535 55.0246 33.535ZM55.9246 28.99C56.5546 28.99 57.0496 28.855 57.4096 28.585C57.7996 28.315 57.9946 27.985 57.9946 27.595C57.9946 27.205 57.7996 26.875 57.4096 26.605C57.0496 26.335 56.5546 26.2 55.9246 26.2C55.2946 26.2 54.7846 26.335 54.3946 26.605C54.0346 26.875 53.8546 27.205 53.8546 27.595C53.8546 27.985 54.0346 28.315 54.3946 28.585C54.7846 28.855 55.2946 28.99 55.9246 28.99Z"/>
<path d="M85.8602 33.535C84.7802 33.535 83.9702 33.235 83.4302 32.635C82.9202 32.035 82.6052 31.3 82.4852 30.43C82.3652 29.56 82.3052 28.435 82.3052 27.055C82.3052 25.285 82.0652 23.92 81.5852 22.96C81.1052 22 80.3252 21.52 79.2452 21.52C78.2552 21.52 77.5052 22 76.9952 22.96C76.5152 23.89 76.2752 25.18 76.2752 26.83C76.2752 28.42 76.2302 29.62 76.1402 30.43C76.0502 31.24 75.7502 31.96 75.2402 32.59C74.7302 33.19 73.8902 33.49 72.7202 33.49C71.0102 33.49 69.8102 32.395 69.1202 30.205C68.4302 27.985 68.0852 25.39 68.0852 22.42C68.0852 15.22 69.6002 11.62 72.6302 11.62C73.4702 11.62 74.1602 11.83 74.7002 12.25C75.2402 12.64 75.6152 13.21 75.8252 13.96C76.2152 13.54 76.8152 13.165 77.6252 12.835C78.4652 12.505 79.3502 12.34 80.2802 12.34C83.5802 12.34 86.0402 13.54 87.6602 15.94C89.3102 18.34 90.1352 21.595 90.1352 25.705C90.1352 28.135 89.8202 30.055 89.1902 31.465C88.5602 32.845 87.4502 33.535 85.8602 33.535Z"/>
<path d="M101.318 33.535C99.188 33.535 97.298 33.025 95.648 32.005C94.028 30.955 92.783 29.605 91.913 27.955C91.043 26.275 90.608 24.49 90.608 22.6C90.608 20.38 91.058 18.505 91.958 16.975C92.888 15.415 94.073 14.26 95.513 13.51C96.983 12.76 98.558 12.385 100.238 12.385C101.918 12.385 103.418 12.745 104.738 13.465C104.678 12.835 104.558 12.16 104.378 11.44C104.228 10.72 104.123 10.27 104.063 10.09C103.823 9.16 103.643 8.38 103.523 7.75C103.403 7.12 103.343 6.49 103.343 5.86C103.343 4.6 103.718 3.64 104.468 2.98C105.218 2.32 106.118 1.99 107.168 1.99C108.848 1.99 110.213 2.83 111.263 4.51C112.313 6.19 113.063 8.275 113.513 10.765C113.993 13.255 114.233 15.775 114.233 18.325C114.233 21.775 113.438 25.18 111.848 28.54C110.288 31.87 106.778 33.535 101.318 33.535ZM101.588 26.425C102.398 26.425 103.103 26.125 103.703 25.525C104.303 24.895 104.603 24.16 104.603 23.32C104.603 22.48 104.303 21.745 103.703 21.115C103.103 20.485 102.398 20.17 101.588 20.17C100.778 20.17 100.058 20.485 99.428 21.115C98.828 21.745 98.528 22.48 98.528 23.32C98.528 24.16 98.828 24.895 99.428 25.525C100.058 26.125 100.778 26.425 101.588 26.425Z"/>
<path d="M130.757 33.535C129.377 33.535 128.432 33.07 127.922 32.14C127.412 31.21 127.157 29.785 127.157 27.865C127.157 26.455 127.142 25.45 127.112 24.85C127.082 24.22 126.962 23.695 126.752 23.275C126.572 22.855 126.242 22.645 125.762 22.645C125.192 22.645 124.772 22.84 124.502 23.23C124.232 23.59 124.067 24.07 124.007 24.67C123.977 25.24 123.962 26.11 123.962 27.28C123.962 28.72 123.902 29.86 123.782 30.7C123.662 31.51 123.347 32.185 122.837 32.725C122.327 33.235 121.532 33.49 120.452 33.49C117.212 33.49 115.592 29.38 115.592 21.16C115.592 18.37 115.832 16.21 116.312 14.68C116.822 13.12 117.767 12.145 119.147 11.755C119.657 11.605 120.122 11.53 120.542 11.53C121.172 11.53 121.742 11.665 122.252 11.935C122.762 12.205 123.122 12.58 123.332 13.06C123.752 12.82 124.172 12.64 124.592 12.52C125.012 12.4 125.612 12.34 126.392 12.34C127.352 12.34 128.252 12.58 129.092 13.06C129.962 13.51 130.577 14.155 130.937 14.995C131.717 14.095 132.497 13.435 133.277 13.015C134.087 12.565 135.122 12.34 136.382 12.34C138.242 12.34 139.862 12.895 141.242 14.005C142.652 15.085 143.732 16.585 144.482 18.505C145.262 20.395 145.652 22.495 145.652 24.805C145.652 27.385 145.307 29.485 144.617 31.105C143.927 32.725 142.727 33.535 141.017 33.535C139.877 33.535 139.052 33.25 138.542 32.68C138.062 32.11 137.762 31.405 137.642 30.565C137.552 29.695 137.507 28.435 137.507 26.785C137.507 25.345 137.402 24.295 137.192 23.635C136.982 22.975 136.487 22.645 135.707 22.645C135.137 22.645 134.777 22.96 134.627 23.59C134.477 24.19 134.402 25.195 134.402 26.605C134.372 26.875 134.357 27.295 134.357 27.865C134.297 29.785 134.012 31.21 133.502 32.14C132.992 33.07 132.077 33.535 130.757 33.535Z"/>
<path d="M154.213 33.535C151.873 33.535 149.953 33.01 148.453 31.96C146.953 30.88 146.203 29.335 146.203 27.325C146.203 25.585 146.968 24.205 148.498 23.185C150.028 22.165 151.933 21.655 154.213 21.655C155.053 21.655 155.833 21.73 156.553 21.88C157.303 22 157.813 22.15 158.083 22.33C158.083 21.58 157.768 20.965 157.138 20.485C156.508 19.975 155.548 19.72 154.258 19.72C153.688 19.72 153.223 19.765 152.863 19.855C152.503 19.945 152.113 20.08 151.693 20.26C151.273 20.44 150.883 20.575 150.523 20.665C150.193 20.755 149.743 20.8 149.173 20.8C148.213 20.8 147.463 20.56 146.923 20.08C146.383 19.57 146.113 18.805 146.113 17.785C146.113 16.615 146.533 15.625 147.373 14.815C148.243 14.005 149.323 13.405 150.613 13.015C151.903 12.595 153.193 12.385 154.483 12.385C157.033 12.385 159.163 12.865 160.873 13.825C162.613 14.755 163.888 16 164.698 17.56C165.538 19.12 165.958 20.845 165.958 22.735C165.958 23.755 165.868 24.7 165.688 25.57C165.538 26.44 165.328 27.115 165.058 27.595C165.478 27.955 165.793 28.375 166.003 28.855C166.243 29.335 166.363 29.83 166.363 30.34C166.363 31.21 166.063 31.96 165.463 32.59C164.893 33.22 164.128 33.535 163.168 33.535C162.448 33.535 161.863 33.43 161.413 33.22C160.963 33.01 160.483 32.68 159.973 32.23C159.223 32.68 158.398 33.01 157.498 33.22C156.628 33.43 155.533 33.535 154.213 33.535ZM155.113 28.99C155.743 28.99 156.238 28.855 156.598 28.585C156.988 28.315 157.183 27.985 157.183 27.595C157.183 27.205 156.988 26.875 156.598 26.605C156.238 26.335 155.743 26.2 155.113 26.2C154.483 26.2 153.973 26.335 153.583 26.605C153.223 26.875 153.043 27.205 153.043 27.595C153.043 27.985 153.223 28.315 153.583 28.585C153.973 28.855 154.483 28.99 155.113 28.99Z"/>
<path d="M174.058 12.925C173.128 12.925 172.438 12.67 171.988 12.16C171.568 11.62 171.313 10.96 171.223 10.18C171.133 9.37 171.088 8.29 171.088 6.94C171.088 5.59 171.133 4.525 171.223 3.745C171.313 2.965 171.568 2.32 171.988 1.81C172.438 1.27 173.128 1 174.058 1C174.988 1 175.663 1.27 176.083 1.81C176.533 2.32 176.803 2.965 176.893 3.745C176.983 4.525 177.028 5.59 177.028 6.94C177.028 8.29 176.983 9.37 176.893 10.18C176.803 10.96 176.533 11.62 176.083 12.16C175.663 12.67 174.988 12.925 174.058 12.925Z"/>
<path d="M190.394 33.535C187.754 33.535 185.654 33.1 184.094 32.23C182.534 31.36 181.754 30.235 181.754 28.855C181.754 27.955 182.054 27.265 182.654 26.785C183.284 26.275 184.079 26.02 185.039 26.02C185.579 26.02 186.014 26.095 186.344 26.245C186.674 26.395 187.004 26.605 187.334 26.875C187.574 27.085 187.769 27.235 187.919 27.325C188.099 27.415 188.309 27.46 188.549 27.46C189.179 27.46 189.494 27.235 189.494 26.785C189.494 26.365 189.329 26.05 188.999 25.84C188.669 25.6 188.099 25.315 187.289 24.985C186.539 24.685 186.044 24.475 185.804 24.355C184.424 23.695 183.404 22.915 182.744 22.015C182.084 21.115 181.754 20.155 181.754 19.135C181.754 17.995 182.159 16.915 182.969 15.895C183.809 14.845 184.979 14.005 186.479 13.375C188.009 12.715 189.764 12.385 191.744 12.385C193.454 12.385 194.999 12.625 196.379 13.105C197.789 13.585 198.899 14.245 199.709 15.085C200.519 15.895 200.924 16.795 200.924 17.785C200.924 18.715 200.624 19.42 200.024 19.9C199.454 20.38 198.674 20.62 197.684 20.62C197.294 20.62 196.979 20.59 196.739 20.53C196.529 20.44 196.244 20.305 195.884 20.125C195.674 20.005 195.449 19.9 195.209 19.81C194.999 19.72 194.759 19.675 194.489 19.675C194.249 19.675 194.039 19.765 193.859 19.945C193.679 20.095 193.589 20.29 193.589 20.53C193.589 20.98 193.919 21.31 194.579 21.52C196.319 22.09 197.714 22.81 198.764 23.68C199.844 24.55 200.384 25.75 200.384 27.28C200.384 29.23 199.469 30.76 197.639 31.87C195.839 32.98 193.424 33.535 190.394 33.535Z"/>
<path d="M53.3222 78.535C50.9822 78.535 49.0622 78.01 47.5622 76.96C46.0622 75.88 45.3122 74.335 45.3122 72.325C45.3122 70.585 46.0772 69.205 47.6072 68.185C49.1372 67.165 51.0422 66.655 53.3222 66.655C54.1622 66.655 54.9422 66.73 55.6622 66.88C56.4122 67 56.9222 67.15 57.1922 67.33C57.1922 66.58 56.8772 65.965 56.2472 65.485C55.6172 64.975 54.6572 64.72 53.3672 64.72C52.7972 64.72 52.3322 64.765 51.9722 64.855C51.6122 64.945 51.2222 65.08 50.8022 65.26C50.3822 65.44 49.9922 65.575 49.6322 65.665C49.3022 65.755 48.8522 65.8 48.2822 65.8C47.3222 65.8 46.5722 65.56 46.0322 65.08C45.4922 64.57 45.2222 63.805 45.2222 62.785C45.2222 61.615 45.6422 60.625 46.4822 59.815C47.3522 59.005 48.4322 58.405 49.7222 58.015C51.0122 57.595 52.3022 57.385 53.5922 57.385C56.1422 57.385 58.2722 57.865 59.9822 58.825C61.7222 59.755 62.9972 61 63.8072 62.56C64.6472 64.12 65.0672 65.845 65.0672 67.735C65.0672 68.755 64.9772 69.7 64.7972 70.57C64.6472 71.44 64.4372 72.115 64.1672 72.595C64.5872 72.955 64.9022 73.375 65.1122 73.855C65.3522 74.335 65.4722 74.83 65.4722 75.34C65.4722 76.21 65.1722 76.96 64.5722 77.59C64.0022 78.22 63.2372 78.535 62.2772 78.535C61.5572 78.535 60.9722 78.43 60.5222 78.22C60.0722 78.01 59.5922 77.68 59.0822 77.23C58.3322 77.68 57.5072 78.01 56.6072 78.22C55.7372 78.43 54.6422 78.535 53.3222 78.535ZM54.2222 73.99C54.8522 73.99 55.3472 73.855 55.7072 73.585C56.0972 73.315 56.2922 72.985 56.2922 72.595C56.2922 72.205 56.0972 71.875 55.7072 71.605C55.3472 71.335 54.8522 71.2 54.2222 71.2C53.5922 71.2 53.0822 71.335 52.6922 71.605C52.3322 71.875 52.1522 72.205 52.1522 72.595C52.1522 72.985 52.3322 73.315 52.6922 73.585C53.0822 73.855 53.5922 73.99 54.2222 73.99Z"/>
<path d="M72.0872 78.445C70.5872 78.445 69.4622 77.89 68.7122 76.78C67.9622 75.67 67.4522 74.035 67.1822 71.875C66.9422 69.685 66.8222 66.64 66.8222 62.74C66.8222 58.99 66.9122 56.065 67.0922 53.965C67.3022 51.865 67.7822 50.185 68.5322 48.925C69.3122 47.665 70.5122 47.035 72.1322 47.035C73.7522 47.035 74.9372 47.665 75.6872 48.925C76.4672 50.185 76.9472 51.865 77.1272 53.965C77.3372 56.065 77.4422 58.99 77.4422 62.74C77.4422 66.43 77.2772 69.415 76.9472 71.695C76.6472 73.945 76.1072 75.64 75.3272 76.78C74.5472 77.89 73.4672 78.445 72.0872 78.445Z"/>
<path d="M91.7131 78.535C86.2531 78.535 82.7281 76.87 81.1381 73.54C79.5781 70.18 78.7981 66.775 78.7981 63.325C78.7981 60.775 79.0231 58.255 79.4731 55.765C79.9531 53.275 80.7181 51.19 81.7681 49.51C82.8181 47.83 84.1831 46.99 85.8631 46.99C86.9131 46.99 87.8131 47.32 88.5631 47.98C89.3131 48.64 89.6881 49.6 89.6881 50.86C89.6881 51.49 89.6281 52.12 89.5081 52.75C89.3881 53.38 89.2081 54.16 88.9681 55.09C88.9081 55.27 88.7881 55.72 88.6081 56.44C88.4581 57.16 88.3531 57.835 88.2931 58.465C89.6131 57.745 91.1131 57.385 92.7931 57.385C94.4731 57.385 96.0331 57.76 97.4731 58.51C98.9431 59.26 100.128 60.415 101.028 61.975C101.958 63.505 102.423 65.38 102.423 67.6C102.423 69.49 101.988 71.275 101.118 72.955C100.248 74.605 98.9881 75.955 97.3381 77.005C95.7181 78.025 93.8431 78.535 91.7131 78.535ZM91.4431 71.425C92.2531 71.425 92.9581 71.125 93.5581 70.525C94.1881 69.895 94.5031 69.16 94.5031 68.32C94.5031 67.48 94.1881 66.745 93.5581 66.115C92.9581 65.485 92.2531 65.17 91.4431 65.17C90.6331 65.17 89.9281 65.485 89.3281 66.115C88.7281 66.745 88.4281 67.48 88.4281 68.32C88.4281 69.16 88.7281 69.895 89.3281 70.525C89.9281 71.125 90.6331 71.425 91.4431 71.425Z"/>
<path d="M113.793 78.535C111.603 78.535 109.683 77.995 108.033 76.915C106.383 75.805 105.108 74.275 104.208 72.325C103.338 70.345 102.903 68.065 102.903 65.485C102.903 62.965 103.308 60.985 104.118 59.545C104.928 58.105 106.053 57.385 107.493 57.385C110.043 57.385 111.318 58.69 111.318 61.3C111.318 61.84 111.303 62.32 111.273 62.74C111.243 63.13 111.213 63.475 111.183 63.775C111.063 64.975 111.003 65.935 111.003 66.655C111.003 67.975 111.273 68.98 111.813 69.67C112.353 70.36 113.013 70.705 113.793 70.705C114.603 70.705 115.263 70.375 115.773 69.715C116.313 69.025 116.583 68.005 116.583 66.655C116.583 65.695 116.538 64.81 116.448 64C116.418 63.73 116.388 63.34 116.358 62.83C116.328 62.29 116.313 61.795 116.313 61.345C116.313 58.705 117.588 57.385 120.138 57.385C121.578 57.385 122.688 58.105 123.468 59.545C124.278 60.955 124.683 62.935 124.683 65.485C124.683 69.475 123.753 72.655 121.893 75.025C120.033 77.365 117.333 78.535 113.793 78.535Z"/>
<path d="M140.898 78.535C139.518 78.535 138.574 78.07 138.064 77.14C137.554 76.21 137.299 74.785 137.299 72.865C137.299 71.455 137.284 70.45 137.254 69.85C137.224 69.22 137.104 68.695 136.894 68.275C136.714 67.855 136.383 67.645 135.904 67.645C135.333 67.645 134.914 67.84 134.644 68.23C134.374 68.59 134.208 69.07 134.148 69.67C134.118 70.24 134.104 71.11 134.104 72.28C134.104 73.72 134.044 74.86 133.924 75.7C133.804 76.51 133.488 77.185 132.979 77.725C132.469 78.235 131.674 78.49 130.594 78.49C127.354 78.49 125.734 74.38 125.734 66.16C125.734 63.37 125.974 61.21 126.454 59.68C126.964 58.12 127.909 57.145 129.288 56.755C129.798 56.605 130.264 56.53 130.684 56.53C131.314 56.53 131.884 56.665 132.394 56.935C132.904 57.205 133.264 57.58 133.474 58.06C133.894 57.82 134.314 57.64 134.734 57.52C135.154 57.4 135.754 57.34 136.534 57.34C137.494 57.34 138.394 57.58 139.234 58.06C140.104 58.51 140.719 59.155 141.079 59.995C141.859 59.095 142.639 58.435 143.419 58.015C144.229 57.565 145.264 57.34 146.523 57.34C148.383 57.34 150.003 57.895 151.383 59.005C152.794 60.085 153.874 61.585 154.624 63.505C155.404 65.395 155.794 67.495 155.794 69.805C155.794 72.385 155.449 74.485 154.758 76.105C154.068 77.725 152.869 78.535 151.159 78.535C150.019 78.535 149.193 78.25 148.684 77.68C148.204 77.11 147.904 76.405 147.784 75.565C147.694 74.695 147.649 73.435 147.649 71.785C147.649 70.345 147.544 69.295 147.334 68.635C147.124 67.975 146.629 67.645 145.849 67.645C145.279 67.645 144.919 67.96 144.769 68.59C144.619 69.19 144.544 70.195 144.544 71.605C144.514 71.875 144.499 72.295 144.499 72.865C144.439 74.785 144.154 76.21 143.644 77.14C143.134 78.07 142.219 78.535 140.898 78.535Z"/>
</mask>
<path d="M10.81 41.23C9.07 41.23 7.645 40.9 6.535 40.24C5.425 39.61 4.87 38.74 4.87 37.63C4.87 36.64 5.245 35.83 5.995 35.2C6.775 34.6 7.75 34.3 8.92 34.3C9.13 34.3 9.475 34.33 9.955 34.39C10.555 34.48 11.11 34.525 11.62 34.525C12.91 34.525 14.02 34.3 14.95 33.85C15.91 33.43 16.495 32.86 16.705 32.14C16.225 32.41 15.55 32.635 14.68 32.815C13.81 32.995 12.88 33.085 11.89 33.085C9.34 33.085 7.24 32.59 5.59 31.6C3.97 30.61 2.8 29.395 2.08 27.955C1.36 26.485 1 25.045 1 23.635C1 21.295 1.51 19.27 2.53 17.56C3.58 15.85 4.93 14.545 6.58 13.645C8.23 12.745 9.955 12.295 11.755 12.295C12.355 12.295 13.045 12.34 13.825 12.43C14.635 12.52 15.31 12.625 15.85 12.745C16.09 11.935 16.495 11.305 17.065 10.855C17.665 10.405 18.55 10.18 19.72 10.18C21.67 10.18 23.08 11.395 23.95 13.825C24.85 16.255 25.3 19.255 25.3 22.825C25.3 24.505 25.21 26.095 25.03 27.595C24.58 31.825 23.095 35.155 20.575 37.585C18.055 40.015 14.8 41.23 10.81 41.23ZM12.475 26.335C13.405 26.335 14.215 26.005 14.905 25.345C15.595 24.655 15.94 23.845 15.94 22.915C15.94 21.985 15.595 21.175 14.905 20.485C14.215 19.795 13.405 19.45 12.475 19.45C11.545 19.45 10.735 19.795 10.045 20.485C9.385 21.175 9.055 21.985 9.055 22.915C9.055 23.845 9.385 24.655 10.045 25.345C10.735 26.005 11.545 26.335 12.475 26.335Z" fill="#A45B18"/>
<path d="M31.414 33.535C29.494 33.535 28.204 32.41 27.544 30.16C26.914 27.91 26.599 24.805 26.599 20.845C26.599 19.045 26.674 17.545 26.824 16.345C27.004 15.115 27.409 14.08 28.039 13.24C28.699 12.37 29.704 11.935 31.054 11.935C31.894 11.935 32.629 12.13 33.259 12.52C33.919 12.91 34.339 13.465 34.519 14.185C35.179 13.585 36.034 13.135 37.084 12.835C38.134 12.535 39.259 12.385 40.459 12.385C41.419 12.385 42.394 12.625 43.384 13.105C44.404 13.585 45.244 14.245 45.904 15.085C46.594 15.895 46.939 16.78 46.939 17.74C46.939 18.7 46.594 19.555 45.904 20.305C45.244 21.025 44.359 21.385 43.249 21.385C42.889 21.385 42.544 21.34 42.214 21.25C41.914 21.16 41.644 21.07 41.404 20.98C40.804 20.74 40.324 20.62 39.964 20.62C38.794 20.62 37.759 21.085 36.859 22.015C35.989 22.915 35.554 24.085 35.554 25.525C35.554 27.115 35.494 28.435 35.374 29.485C35.254 30.535 34.894 31.48 34.294 32.32C33.694 33.13 32.734 33.535 31.414 33.535Z" fill="#A45B18"/>
<path d="M55.0246 33.535C52.6846 33.535 50.7646 33.01 49.2646 31.96C47.7646 30.88 47.0146 29.335 47.0146 27.325C47.0146 25.585 47.7796 24.205 49.3096 23.185C50.8396 22.165 52.7446 21.655 55.0246 21.655C55.8646 21.655 56.6446 21.73 57.3646 21.88C58.1146 22 58.6246 22.15 58.8946 22.33C58.8946 21.58 58.5796 20.965 57.9496 20.485C57.3196 19.975 56.3596 19.72 55.0696 19.72C54.4996 19.72 54.0346 19.765 53.6746 19.855C53.3146 19.945 52.9246 20.08 52.5046 20.26C52.0846 20.44 51.6946 20.575 51.3346 20.665C51.0046 20.755 50.5546 20.8 49.9846 20.8C49.0246 20.8 48.2746 20.56 47.7346 20.08C47.1946 19.57 46.9246 18.805 46.9246 17.785C46.9246 16.615 47.3446 15.625 48.1846 14.815C49.0546 14.005 50.1346 13.405 51.4246 13.015C52.7146 12.595 54.0046 12.385 55.2946 12.385C57.8446 12.385 59.9746 12.865 61.6846 13.825C63.4246 14.755 64.6996 16 65.5096 17.56C66.3496 19.12 66.7696 20.845 66.7696 22.735C66.7696 23.755 66.6796 24.7 66.4996 25.57C66.3496 26.44 66.1396 27.115 65.8696 27.595C66.2896 27.955 66.6046 28.375 66.8146 28.855C67.0546 29.335 67.1746 29.83 67.1746 30.34C67.1746 31.21 66.8746 31.96 66.2746 32.59C65.7046 33.22 64.9396 33.535 63.9796 33.535C63.2596 33.535 62.6746 33.43 62.2246 33.22C61.7746 33.01 61.2946 32.68 60.7846 32.23C60.0346 32.68 59.2096 33.01 58.3096 33.22C57.4396 33.43 56.3446 33.535 55.0246 33.535ZM55.9246 28.99C56.5546 28.99 57.0496 28.855 57.4096 28.585C57.7996 28.315 57.9946 27.985 57.9946 27.595C57.9946 27.205 57.7996 26.875 57.4096 26.605C57.0496 26.335 56.5546 26.2 55.9246 26.2C55.2946 26.2 54.7846 26.335 54.3946 26.605C54.0346 26.875 53.8546 27.205 53.8546 27.595C53.8546 27.985 54.0346 28.315 54.3946 28.585C54.7846 28.855 55.2946 28.99 55.9246 28.99Z" fill="#A45B18"/>
<path d="M85.8602 33.535C84.7802 33.535 83.9702 33.235 83.4302 32.635C82.9202 32.035 82.6052 31.3 82.4852 30.43C82.3652 29.56 82.3052 28.435 82.3052 27.055C82.3052 25.285 82.0652 23.92 81.5852 22.96C81.1052 22 80.3252 21.52 79.2452 21.52C78.2552 21.52 77.5052 22 76.9952 22.96C76.5152 23.89 76.2752 25.18 76.2752 26.83C76.2752 28.42 76.2302 29.62 76.1402 30.43C76.0502 31.24 75.7502 31.96 75.2402 32.59C74.7302 33.19 73.8902 33.49 72.7202 33.49C71.0102 33.49 69.8102 32.395 69.1202 30.205C68.4302 27.985 68.0852 25.39 68.0852 22.42C68.0852 15.22 69.6002 11.62 72.6302 11.62C73.4702 11.62 74.1602 11.83 74.7002 12.25C75.2402 12.64 75.6152 13.21 75.8252 13.96C76.2152 13.54 76.8152 13.165 77.6252 12.835C78.4652 12.505 79.3502 12.34 80.2802 12.34C83.5802 12.34 86.0402 13.54 87.6602 15.94C89.3102 18.34 90.1352 21.595 90.1352 25.705C90.1352 28.135 89.8202 30.055 89.1902 31.465C88.5602 32.845 87.4502 33.535 85.8602 33.535Z" fill="#A45B18"/>
<path d="M101.318 33.535C99.188 33.535 97.298 33.025 95.648 32.005C94.028 30.955 92.783 29.605 91.913 27.955C91.043 26.275 90.608 24.49 90.608 22.6C90.608 20.38 91.058 18.505 91.958 16.975C92.888 15.415 94.073 14.26 95.513 13.51C96.983 12.76 98.558 12.385 100.238 12.385C101.918 12.385 103.418 12.745 104.738 13.465C104.678 12.835 104.558 12.16 104.378 11.44C104.228 10.72 104.123 10.27 104.063 10.09C103.823 9.16 103.643 8.38 103.523 7.75C103.403 7.12 103.343 6.49 103.343 5.86C103.343 4.6 103.718 3.64 104.468 2.98C105.218 2.32 106.118 1.99 107.168 1.99C108.848 1.99 110.213 2.83 111.263 4.51C112.313 6.19 113.063 8.275 113.513 10.765C113.993 13.255 114.233 15.775 114.233 18.325C114.233 21.775 113.438 25.18 111.848 28.54C110.288 31.87 106.778 33.535 101.318 33.535ZM101.588 26.425C102.398 26.425 103.103 26.125 103.703 25.525C104.303 24.895 104.603 24.16 104.603 23.32C104.603 22.48 104.303 21.745 103.703 21.115C103.103 20.485 102.398 20.17 101.588 20.17C100.778 20.17 100.058 20.485 99.428 21.115C98.828 21.745 98.528 22.48 98.528 23.32C98.528 24.16 98.828 24.895 99.428 25.525C100.058 26.125 100.778 26.425 101.588 26.425Z" fill="#A45B18"/>
<path d="M130.757 33.535C129.377 33.535 128.432 33.07 127.922 32.14C127.412 31.21 127.157 29.785 127.157 27.865C127.157 26.455 127.142 25.45 127.112 24.85C127.082 24.22 126.962 23.695 126.752 23.275C126.572 22.855 126.242 22.645 125.762 22.645C125.192 22.645 124.772 22.84 124.502 23.23C124.232 23.59 124.067 24.07 124.007 24.67C123.977 25.24 123.962 26.11 123.962 27.28C123.962 28.72 123.902 29.86 123.782 30.7C123.662 31.51 123.347 32.185 122.837 32.725C122.327 33.235 121.532 33.49 120.452 33.49C117.212 33.49 115.592 29.38 115.592 21.16C115.592 18.37 115.832 16.21 116.312 14.68C116.822 13.12 117.767 12.145 119.147 11.755C119.657 11.605 120.122 11.53 120.542 11.53C121.172 11.53 121.742 11.665 122.252 11.935C122.762 12.205 123.122 12.58 123.332 13.06C123.752 12.82 124.172 12.64 124.592 12.52C125.012 12.4 125.612 12.34 126.392 12.34C127.352 12.34 128.252 12.58 129.092 13.06C129.962 13.51 130.577 14.155 130.937 14.995C131.717 14.095 132.497 13.435 133.277 13.015C134.087 12.565 135.122 12.34 136.382 12.34C138.242 12.34 139.862 12.895 141.242 14.005C142.652 15.085 143.732 16.585 144.482 18.505C145.262 20.395 145.652 22.495 145.652 24.805C145.652 27.385 145.307 29.485 144.617 31.105C143.927 32.725 142.727 33.535 141.017 33.535C139.877 33.535 139.052 33.25 138.542 32.68C138.062 32.11 137.762 31.405 137.642 30.565C137.552 29.695 137.507 28.435 137.507 26.785C137.507 25.345 137.402 24.295 137.192 23.635C136.982 22.975 136.487 22.645 135.707 22.645C135.137 22.645 134.777 22.96 134.627 23.59C134.477 24.19 134.402 25.195 134.402 26.605C134.372 26.875 134.357 27.295 134.357 27.865C134.297 29.785 134.012 31.21 133.502 32.14C132.992 33.07 132.077 33.535 130.757 33.535Z" fill="#A45B18"/>
<path d="M154.213 33.535C151.873 33.535 149.953 33.01 148.453 31.96C146.953 30.88 146.203 29.335 146.203 27.325C146.203 25.585 146.968 24.205 148.498 23.185C150.028 22.165 151.933 21.655 154.213 21.655C155.053 21.655 155.833 21.73 156.553 21.88C157.303 22 157.813 22.15 158.083 22.33C158.083 21.58 157.768 20.965 157.138 20.485C156.508 19.975 155.548 19.72 154.258 19.72C153.688 19.72 153.223 19.765 152.863 19.855C152.503 19.945 152.113 20.08 151.693 20.26C151.273 20.44 150.883 20.575 150.523 20.665C150.193 20.755 149.743 20.8 149.173 20.8C148.213 20.8 147.463 20.56 146.923 20.08C146.383 19.57 146.113 18.805 146.113 17.785C146.113 16.615 146.533 15.625 147.373 14.815C148.243 14.005 149.323 13.405 150.613 13.015C151.903 12.595 153.193 12.385 154.483 12.385C157.033 12.385 159.163 12.865 160.873 13.825C162.613 14.755 163.888 16 164.698 17.56C165.538 19.12 165.958 20.845 165.958 22.735C165.958 23.755 165.868 24.7 165.688 25.57C165.538 26.44 165.328 27.115 165.058 27.595C165.478 27.955 165.793 28.375 166.003 28.855C166.243 29.335 166.363 29.83 166.363 30.34C166.363 31.21 166.063 31.96 165.463 32.59C164.893 33.22 164.128 33.535 163.168 33.535C162.448 33.535 161.863 33.43 161.413 33.22C160.963 33.01 160.483 32.68 159.973 32.23C159.223 32.68 158.398 33.01 157.498 33.22C156.628 33.43 155.533 33.535 154.213 33.535ZM155.113 28.99C155.743 28.99 156.238 28.855 156.598 28.585C156.988 28.315 157.183 27.985 157.183 27.595C157.183 27.205 156.988 26.875 156.598 26.605C156.238 26.335 155.743 26.2 155.113 26.2C154.483 26.2 153.973 26.335 153.583 26.605C153.223 26.875 153.043 27.205 153.043 27.595C153.043 27.985 153.223 28.315 153.583 28.585C153.973 28.855 154.483 28.99 155.113 28.99Z" fill="#A45B18"/>
<path d="M174.058 12.925C173.128 12.925 172.438 12.67 171.988 12.16C171.568 11.62 171.313 10.96 171.223 10.18C171.133 9.37 171.088 8.29 171.088 6.94C171.088 5.59 171.133 4.525 171.223 3.745C171.313 2.965 171.568 2.32 171.988 1.81C172.438 1.27 173.128 1 174.058 1C174.988 1 175.663 1.27 176.083 1.81C176.533 2.32 176.803 2.965 176.893 3.745C176.983 4.525 177.028 5.59 177.028 6.94C177.028 8.29 176.983 9.37 176.893 10.18C176.803 10.96 176.533 11.62 176.083 12.16C175.663 12.67 174.988 12.925 174.058 12.925Z" fill="#A45B18"/>
<path d="M190.394 33.535C187.754 33.535 185.654 33.1 184.094 32.23C182.534 31.36 181.754 30.235 181.754 28.855C181.754 27.955 182.054 27.265 182.654 26.785C183.284 26.275 184.079 26.02 185.039 26.02C185.579 26.02 186.014 26.095 186.344 26.245C186.674 26.395 187.004 26.605 187.334 26.875C187.574 27.085 187.769 27.235 187.919 27.325C188.099 27.415 188.309 27.46 188.549 27.46C189.179 27.46 189.494 27.235 189.494 26.785C189.494 26.365 189.329 26.05 188.999 25.84C188.669 25.6 188.099 25.315 187.289 24.985C186.539 24.685 186.044 24.475 185.804 24.355C184.424 23.695 183.404 22.915 182.744 22.015C182.084 21.115 181.754 20.155 181.754 19.135C181.754 17.995 182.159 16.915 182.969 15.895C183.809 14.845 184.979 14.005 186.479 13.375C188.009 12.715 189.764 12.385 191.744 12.385C193.454 12.385 194.999 12.625 196.379 13.105C197.789 13.585 198.899 14.245 199.709 15.085C200.519 15.895 200.924 16.795 200.924 17.785C200.924 18.715 200.624 19.42 200.024 19.9C199.454 20.38 198.674 20.62 197.684 20.62C197.294 20.62 196.979 20.59 196.739 20.53C196.529 20.44 196.244 20.305 195.884 20.125C195.674 20.005 195.449 19.9 195.209 19.81C194.999 19.72 194.759 19.675 194.489 19.675C194.249 19.675 194.039 19.765 193.859 19.945C193.679 20.095 193.589 20.29 193.589 20.53C193.589 20.98 193.919 21.31 194.579 21.52C196.319 22.09 197.714 22.81 198.764 23.68C199.844 24.55 200.384 25.75 200.384 27.28C200.384 29.23 199.469 30.76 197.639 31.87C195.839 32.98 193.424 33.535 190.394 33.535Z" fill="#A45B18"/>
<path d="M53.3222 78.535C50.9822 78.535 49.0622 78.01 47.5622 76.96C46.0622 75.88 45.3122 74.335 45.3122 72.325C45.3122 70.585 46.0772 69.205 47.6072 68.185C49.1372 67.165 51.0422 66.655 53.3222 66.655C54.1622 66.655 54.9422 66.73 55.6622 66.88C56.4122 67 56.9222 67.15 57.1922 67.33C57.1922 66.58 56.8772 65.965 56.2472 65.485C55.6172 64.975 54.6572 64.72 53.3672 64.72C52.7972 64.72 52.3322 64.765 51.9722 64.855C51.6122 64.945 51.2222 65.08 50.8022 65.26C50.3822 65.44 49.9922 65.575 49.6322 65.665C49.3022 65.755 48.8522 65.8 48.2822 65.8C47.3222 65.8 46.5722 65.56 46.0322 65.08C45.4922 64.57 45.2222 63.805 45.2222 62.785C45.2222 61.615 45.6422 60.625 46.4822 59.815C47.3522 59.005 48.4322 58.405 49.7222 58.015C51.0122 57.595 52.3022 57.385 53.5922 57.385C56.1422 57.385 58.2722 57.865 59.9822 58.825C61.7222 59.755 62.9972 61 63.8072 62.56C64.6472 64.12 65.0672 65.845 65.0672 67.735C65.0672 68.755 64.9772 69.7 64.7972 70.57C64.6472 71.44 64.4372 72.115 64.1672 72.595C64.5872 72.955 64.9022 73.375 65.1122 73.855C65.3522 74.335 65.4722 74.83 65.4722 75.34C65.4722 76.21 65.1722 76.96 64.5722 77.59C64.0022 78.22 63.2372 78.535 62.2772 78.535C61.5572 78.535 60.9722 78.43 60.5222 78.22C60.0722 78.01 59.5922 77.68 59.0822 77.23C58.3322 77.68 57.5072 78.01 56.6072 78.22C55.7372 78.43 54.6422 78.535 53.3222 78.535ZM54.2222 73.99C54.8522 73.99 55.3472 73.855 55.7072 73.585C56.0972 73.315 56.2922 72.985 56.2922 72.595C56.2922 72.205 56.0972 71.875 55.7072 71.605C55.3472 71.335 54.8522 71.2 54.2222 71.2C53.5922 71.2 53.0822 71.335 52.6922 71.605C52.3322 71.875 52.1522 72.205 52.1522 72.595C52.1522 72.985 52.3322 73.315 52.6922 73.585C53.0822 73.855 53.5922 73.99 54.2222 73.99Z" fill="#A45B18"/>
<path d="M72.0872 78.445C70.5872 78.445 69.4622 77.89 68.7122 76.78C67.9622 75.67 67.4522 74.035 67.1822 71.875C66.9422 69.685 66.8222 66.64 66.8222 62.74C66.8222 58.99 66.9122 56.065 67.0922 53.965C67.3022 51.865 67.7822 50.185 68.5322 48.925C69.3122 47.665 70.5122 47.035 72.1322 47.035C73.7522 47.035 74.9372 47.665 75.6872 48.925C76.4672 50.185 76.9472 51.865 77.1272 53.965C77.3372 56.065 77.4422 58.99 77.4422 62.74C77.4422 66.43 77.2772 69.415 76.9472 71.695C76.6472 73.945 76.1072 75.64 75.3272 76.78C74.5472 77.89 73.4672 78.445 72.0872 78.445Z" fill="#A45B18"/>
<path d="M91.7131 78.535C86.2531 78.535 82.7281 76.87 81.1381 73.54C79.5781 70.18 78.7981 66.775 78.7981 63.325C78.7981 60.775 79.0231 58.255 79.4731 55.765C79.9531 53.275 80.7181 51.19 81.7681 49.51C82.8181 47.83 84.1831 46.99 85.8631 46.99C86.9131 46.99 87.8131 47.32 88.5631 47.98C89.3131 48.64 89.6881 49.6 89.6881 50.86C89.6881 51.49 89.6281 52.12 89.5081 52.75C89.3881 53.38 89.2081 54.16 88.9681 55.09C88.9081 55.27 88.7881 55.72 88.6081 56.44C88.4581 57.16 88.3531 57.835 88.2931 58.465C89.6131 57.745 91.1131 57.385 92.7931 57.385C94.4731 57.385 96.0331 57.76 97.4731 58.51C98.9431 59.26 100.128 60.415 101.028 61.975C101.958 63.505 102.423 65.38 102.423 67.6C102.423 69.49 101.988 71.275 101.118 72.955C100.248 74.605 98.9881 75.955 97.3381 77.005C95.7181 78.025 93.8431 78.535 91.7131 78.535ZM91.4431 71.425C92.2531 71.425 92.9581 71.125 93.5581 70.525C94.1881 69.895 94.5031 69.16 94.5031 68.32C94.5031 67.48 94.1881 66.745 93.5581 66.115C92.9581 65.485 92.2531 65.17 91.4431 65.17C90.6331 65.17 89.9281 65.485 89.3281 66.115C88.7281 66.745 88.4281 67.48 88.4281 68.32C88.4281 69.16 88.7281 69.895 89.3281 70.525C89.9281 71.125 90.6331 71.425 91.4431 71.425Z" fill="#A45B18"/>
<path d="M113.793 78.535C111.603 78.535 109.683 77.995 108.033 76.915C106.383 75.805 105.108 74.275 104.208 72.325C103.338 70.345 102.903 68.065 102.903 65.485C102.903 62.965 103.308 60.985 104.118 59.545C104.928 58.105 106.053 57.385 107.493 57.385C110.043 57.385 111.318 58.69 111.318 61.3C111.318 61.84 111.303 62.32 111.273 62.74C111.243 63.13 111.213 63.475 111.183 63.775C111.063 64.975 111.003 65.935 111.003 66.655C111.003 67.975 111.273 68.98 111.813 69.67C112.353 70.36 113.013 70.705 113.793 70.705C114.603 70.705 115.263 70.375 115.773 69.715C116.313 69.025 116.583 68.005 116.583 66.655C116.583 65.695 116.538 64.81 116.448 64C116.418 63.73 116.388 63.34 116.358 62.83C116.328 62.29 116.313 61.795 116.313 61.345C116.313 58.705 117.588 57.385 120.138 57.385C121.578 57.385 122.688 58.105 123.468 59.545C124.278 60.955 124.683 62.935 124.683 65.485C124.683 69.475 123.753 72.655 121.893 75.025C120.033 77.365 117.333 78.535 113.793 78.535Z" fill="#A45B18"/>
<path d="M140.898 78.535C139.518 78.535 138.574 78.07 138.064 77.14C137.554 76.21 137.299 74.785 137.299 72.865C137.299 71.455 137.284 70.45 137.254 69.85C137.224 69.22 137.104 68.695 136.894 68.275C136.714 67.855 136.383 67.645 135.904 67.645C135.333 67.645 134.914 67.84 134.644 68.23C134.374 68.59 134.208 69.07 134.148 69.67C134.118 70.24 134.104 71.11 134.104 72.28C134.104 73.72 134.044 74.86 133.924 75.7C133.804 76.51 133.488 77.185 132.979 77.725C132.469 78.235 131.674 78.49 130.594 78.49C127.354 78.49 125.734 74.38 125.734 66.16C125.734 63.37 125.974 61.21 126.454 59.68C126.964 58.12 127.909 57.145 129.288 56.755C129.798 56.605 130.264 56.53 130.684 56.53C131.314 56.53 131.884 56.665 132.394 56.935C132.904 57.205 133.264 57.58 133.474 58.06C133.894 57.82 134.314 57.64 134.734 57.52C135.154 57.4 135.754 57.34 136.534 57.34C137.494 57.34 138.394 57.58 139.234 58.06C140.104 58.51 140.719 59.155 141.079 59.995C141.859 59.095 142.639 58.435 143.419 58.015C144.229 57.565 145.264 57.34 146.523 57.34C148.383 57.34 150.003 57.895 151.383 59.005C152.794 60.085 153.874 61.585 154.624 63.505C155.404 65.395 155.794 67.495 155.794 69.805C155.794 72.385 155.449 74.485 154.758 76.105C154.068 77.725 152.869 78.535 151.159 78.535C150.019 78.535 149.193 78.25 148.684 77.68C148.204 77.11 147.904 76.405 147.784 75.565C147.694 74.695 147.649 73.435 147.649 71.785C147.649 70.345 147.544 69.295 147.334 68.635C147.124 67.975 146.629 67.645 145.849 67.645C145.279 67.645 144.919 67.96 144.769 68.59C144.619 69.19 144.544 70.195 144.544 71.605C144.514 71.875 144.499 72.295 144.499 72.865C144.439 74.785 144.154 76.21 143.644 77.14C143.134 78.07 142.219 78.535 140.898 78.535Z" fill="#A45B18"/>
<path d="M10.81 41.23C9.07 41.23 7.645 40.9 6.535 40.24C5.425 39.61 4.87 38.74 4.87 37.63C4.87 36.64 5.245 35.83 5.995 35.2C6.775 34.6 7.75 34.3 8.92 34.3C9.13 34.3 9.475 34.33 9.955 34.39C10.555 34.48 11.11 34.525 11.62 34.525C12.91 34.525 14.02 34.3 14.95 33.85C15.91 33.43 16.495 32.86 16.705 32.14C16.225 32.41 15.55 32.635 14.68 32.815C13.81 32.995 12.88 33.085 11.89 33.085C9.34 33.085 7.24 32.59 5.59 31.6C3.97 30.61 2.8 29.395 2.08 27.955C1.36 26.485 1 25.045 1 23.635C1 21.295 1.51 19.27 2.53 17.56C3.58 15.85 4.93 14.545 6.58 13.645C8.23 12.745 9.955 12.295 11.755 12.295C12.355 12.295 13.045 12.34 13.825 12.43C14.635 12.52 15.31 12.625 15.85 12.745C16.09 11.935 16.495 11.305 17.065 10.855C17.665 10.405 18.55 10.18 19.72 10.18C21.67 10.18 23.08 11.395 23.95 13.825C24.85 16.255 25.3 19.255 25.3 22.825C25.3 24.505 25.21 26.095 25.03 27.595C24.58 31.825 23.095 35.155 20.575 37.585C18.055 40.015 14.8 41.23 10.81 41.23ZM12.475 26.335C13.405 26.335 14.215 26.005 14.905 25.345C15.595 24.655 15.94 23.845 15.94 22.915C15.94 21.985 15.595 21.175 14.905 20.485C14.215 19.795 13.405 19.45 12.475 19.45C11.545 19.45 10.735 19.795 10.045 20.485C9.385 21.175 9.055 21.985 9.055 22.915C9.055 23.845 9.385 24.655 10.045 25.345C10.735 26.005 11.545 26.335 12.475 26.335Z" stroke="white" stroke-width="2" mask="url(#path-1-outside-1_13:10)"/>
<path d="M31.414 33.535C29.494 33.535 28.204 32.41 27.544 30.16C26.914 27.91 26.599 24.805 26.599 20.845C26.599 19.045 26.674 17.545 26.824 16.345C27.004 15.115 27.409 14.08 28.039 13.24C28.699 12.37 29.704 11.935 31.054 11.935C31.894 11.935 32.629 12.13 33.259 12.52C33.919 12.91 34.339 13.465 34.519 14.185C35.179 13.585 36.034 13.135 37.084 12.835C38.134 12.535 39.259 12.385 40.459 12.385C41.419 12.385 42.394 12.625 43.384 13.105C44.404 13.585 45.244 14.245 45.904 15.085C46.594 15.895 46.939 16.78 46.939 17.74C46.939 18.7 46.594 19.555 45.904 20.305C45.244 21.025 44.359 21.385 43.249 21.385C42.889 21.385 42.544 21.34 42.214 21.25C41.914 21.16 41.644 21.07 41.404 20.98C40.804 20.74 40.324 20.62 39.964 20.62C38.794 20.62 37.759 21.085 36.859 22.015C35.989 22.915 35.554 24.085 35.554 25.525C35.554 27.115 35.494 28.435 35.374 29.485C35.254 30.535 34.894 31.48 34.294 32.32C33.694 33.13 32.734 33.535 31.414 33.535Z" stroke="white" stroke-width="2" mask="url(#path-1-outside-1_13:10)"/>
<path d="M55.0246 33.535C52.6846 33.535 50.7646 33.01 49.2646 31.96C47.7646 30.88 47.0146 29.335 47.0146 27.325C47.0146 25.585 47.7796 24.205 49.3096 23.185C50.8396 22.165 52.7446 21.655 55.0246 21.655C55.8646 21.655 56.6446 21.73 57.3646 21.88C58.1146 22 58.6246 22.15 58.8946 22.33C58.8946 21.58 58.5796 20.965 57.9496 20.485C57.3196 19.975 56.3596 19.72 55.0696 19.72C54.4996 19.72 54.0346 19.765 53.6746 19.855C53.3146 19.945 52.9246 20.08 52.5046 20.26C52.0846 20.44 51.6946 20.575 51.3346 20.665C51.0046 20.755 50.5546 20.8 49.9846 20.8C49.0246 20.8 48.2746 20.56 47.7346 20.08C47.1946 19.57 46.9246 18.805 46.9246 17.785C46.9246 16.615 47.3446 15.625 48.1846 14.815C49.0546 14.005 50.1346 13.405 51.4246 13.015C52.7146 12.595 54.0046 12.385 55.2946 12.385C57.8446 12.385 59.9746 12.865 61.6846 13.825C63.4246 14.755 64.6996 16 65.5096 17.56C66.3496 19.12 66.7696 20.845 66.7696 22.735C66.7696 23.755 66.6796 24.7 66.4996 25.57C66.3496 26.44 66.1396 27.115 65.8696 27.595C66.2896 27.955 66.6046 28.375 66.8146 28.855C67.0546 29.335 67.1746 29.83 67.1746 30.34C67.1746 31.21 66.8746 31.96 66.2746 32.59C65.7046 33.22 64.9396 33.535 63.9796 33.535C63.2596 33.535 62.6746 33.43 62.2246 33.22C61.7746 33.01 61.2946 32.68 60.7846 32.23C60.0346 32.68 59.2096 33.01 58.3096 33.22C57.4396 33.43 56.3446 33.535 55.0246 33.535ZM55.9246 28.99C56.5546 28.99 57.0496 28.855 57.4096 28.585C57.7996 28.315 57.9946 27.985 57.9946 27.595C57.9946 27.205 57.7996 26.875 57.4096 26.605C57.0496 26.335 56.5546 26.2 55.9246 26.2C55.2946 26.2 54.7846 26.335 54.3946 26.605C54.0346 26.875 53.8546 27.205 53.8546 27.595C53.8546 27.985 54.0346 28.315 54.3946 28.585C54.7846 28.855 55.2946 28.99 55.9246 28.99Z" stroke="white" stroke-width="2" mask="url(#path-1-outside-1_13:10)"/>
<path d="M85.8602 33.535C84.7802 33.535 83.9702 33.235 83.4302 32.635C82.9202 32.035 82.6052 31.3 82.4852 30.43C82.3652 29.56 82.3052 28.435 82.3052 27.055C82.3052 25.285 82.0652 23.92 81.5852 22.96C81.1052 22 80.3252 21.52 79.2452 21.52C78.2552 21.52 77.5052 22 76.9952 22.96C76.5152 23.89 76.2752 25.18 76.2752 26.83C76.2752 28.42 76.2302 29.62 76.1402 30.43C76.0502 31.24 75.7502 31.96 75.2402 32.59C74.7302 33.19 73.8902 33.49 72.7202 33.49C71.0102 33.49 69.8102 32.395 69.1202 30.205C68.4302 27.985 68.0852 25.39 68.0852 22.42C68.0852 15.22 69.6002 11.62 72.6302 11.62C73.4702 11.62 74.1602 11.83 74.7002 12.25C75.2402 12.64 75.6152 13.21 75.8252 13.96C76.2152 13.54 76.8152 13.165 77.6252 12.835C78.4652 12.505 79.3502 12.34 80.2802 12.34C83.5802 12.34 86.0402 13.54 87.6602 15.94C89.3102 18.34 90.1352 21.595 90.1352 25.705C90.1352 28.135 89.8202 30.055 89.1902 31.465C88.5602 32.845 87.4502 33.535 85.8602 33.535Z" stroke="white" stroke-width="2" mask="url(#path-1-outside-1_13:10)"/>
<path d="M101.318 33.535C99.188 33.535 97.298 33.025 95.648 32.005C94.028 30.955 92.783 29.605 91.913 27.955C91.043 26.275 90.608 24.49 90.608 22.6C90.608 20.38 91.058 18.505 91.958 16.975C92.888 15.415 94.073 14.26 95.513 13.51C96.983 12.76 98.558 12.385 100.238 12.385C101.918 12.385 103.418 12.745 104.738 13.465C104.678 12.835 104.558 12.16 104.378 11.44C104.228 10.72 104.123 10.27 104.063 10.09C103.823 9.16 103.643 8.38 103.523 7.75C103.403 7.12 103.343 6.49 103.343 5.86C103.343 4.6 103.718 3.64 104.468 2.98C105.218 2.32 106.118 1.99 107.168 1.99C108.848 1.99 110.213 2.83 111.263 4.51C112.313 6.19 113.063 8.275 113.513 10.765C113.993 13.255 114.233 15.775 114.233 18.325C114.233 21.775 113.438 25.18 111.848 28.54C110.288 31.87 106.778 33.535 101.318 33.535ZM101.588 26.425C102.398 26.425 103.103 26.125 103.703 25.525C104.303 24.895 104.603 24.16 104.603 23.32C104.603 22.48 104.303 21.745 103.703 21.115C103.103 20.485 102.398 20.17 101.588 20.17C100.778 20.17 100.058 20.485 99.428 21.115C98.828 21.745 98.528 22.48 98.528 23.32C98.528 24.16 98.828 24.895 99.428 25.525C100.058 26.125 100.778 26.425 101.588 26.425Z" stroke="white" stroke-width="2" mask="url(#path-1-outside-1_13:10)"/>
<path d="M130.757 33.535C129.377 33.535 128.432 33.07 127.922 32.14C127.412 31.21 127.157 29.785 127.157 27.865C127.157 26.455 127.142 25.45 127.112 24.85C127.082 24.22 126.962 23.695 126.752 23.275C126.572 22.855 126.242 22.645 125.762 22.645C125.192 22.645 124.772 22.84 124.502 23.23C124.232 23.59 124.067 24.07 124.007 24.67C123.977 25.24 123.962 26.11 123.962 27.28C123.962 28.72 123.902 29.86 123.782 30.7C123.662 31.51 123.347 32.185 122.837 32.725C122.327 33.235 121.532 33.49 120.452 33.49C117.212 33.49 115.592 29.38 115.592 21.16C115.592 18.37 115.832 16.21 116.312 14.68C116.822 13.12 117.767 12.145 119.147 11.755C119.657 11.605 120.122 11.53 120.542 11.53C121.172 11.53 121.742 11.665 122.252 11.935C122.762 12.205 123.122 12.58 123.332 13.06C123.752 12.82 124.172 12.64 124.592 12.52C125.012 12.4 125.612 12.34 126.392 12.34C127.352 12.34 128.252 12.58 129.092 13.06C129.962 13.51 130.577 14.155 130.937 14.995C131.717 14.095 132.497 13.435 133.277 13.015C134.087 12.565 135.122 12.34 136.382 12.34C138.242 12.34 139.862 12.895 141.242 14.005C142.652 15.085 143.732 16.585 144.482 18.505C145.262 20.395 145.652 22.495 145.652 24.805C145.652 27.385 145.307 29.485 144.617 31.105C143.927 32.725 142.727 33.535 141.017 33.535C139.877 33.535 139.052 33.25 138.542 32.68C138.062 32.11 137.762 31.405 137.642 30.565C137.552 29.695 137.507 28.435 137.507 26.785C137.507 25.345 137.402 24.295 137.192 23.635C136.982 22.975 136.487 22.645 135.707 22.645C135.137 22.645 134.777 22.96 134.627 23.59C134.477 24.19 134.402 25.195 134.402 26.605C134.372 26.875 134.357 27.295 134.357 27.865C134.297 29.785 134.012 31.21 133.502 32.14C132.992 33.07 132.077 33.535 130.757 33.535Z" stroke="white" stroke-width="2" mask="url(#path-1-outside-1_13:10)"/>
<path d="M154.213 33.535C151.873 33.535 149.953 33.01 148.453 31.96C146.953 30.88 146.203 29.335 146.203 27.325C146.203 25.585 146.968 24.205 148.498 23.185C150.028 22.165 151.933 21.655 154.213 21.655C155.053 21.655 155.833 21.73 156.553 21.88C157.303 22 157.813 22.15 158.083 22.33C158.083 21.58 157.768 20.965 157.138 20.485C156.508 19.975 155.548 19.72 154.258 19.72C153.688 19.72 153.223 19.765 152.863 19.855C152.503 19.945 152.113 20.08 151.693 20.26C151.273 20.44 150.883 20.575 150.523 20.665C150.193 20.755 149.743 20.8 149.173 20.8C148.213 20.8 147.463 20.56 146.923 20.08C146.383 19.57 146.113 18.805 146.113 17.785C146.113 16.615 146.533 15.625 147.373 14.815C148.243 14.005 149.323 13.405 150.613 13.015C151.903 12.595 153.193 12.385 154.483 12.385C157.033 12.385 159.163 12.865 160.873 13.825C162.613 14.755 163.888 16 164.698 17.56C165.538 19.12 165.958 20.845 165.958 22.735C165.958 23.755 165.868 24.7 165.688 25.57C165.538 26.44 165.328 27.115 165.058 27.595C165.478 27.955 165.793 28.375 166.003 28.855C166.243 29.335 166.363 29.83 166.363 30.34C166.363 31.21 166.063 31.96 165.463 32.59C164.893 33.22 164.128 33.535 163.168 33.535C162.448 33.535 161.863 33.43 161.413 33.22C160.963 33.01 160.483 32.68 159.973 32.23C159.223 32.68 158.398 33.01 157.498 33.22C156.628 33.43 155.533 33.535 154.213 33.535ZM155.113 28.99C155.743 28.99 156.238 28.855 156.598 28.585C156.988 28.315 157.183 27.985 157.183 27.595C157.183 27.205 156.988 26.875 156.598 26.605C156.238 26.335 155.743 26.2 155.113 26.2C154.483 26.2 153.973 26.335 153.583 26.605C153.223 26.875 153.043 27.205 153.043 27.595C153.043 27.985 153.223 28.315 153.583 28.585C153.973 28.855 154.483 28.99 155.113 28.99Z" stroke="white" stroke-width="2" mask="url(#path-1-outside-1_13:10)"/>
<path d="M174.058 12.925C173.128 12.925 172.438 12.67 171.988 12.16C171.568 11.62 171.313 10.96 171.223 10.18C171.133 9.37 171.088 8.29 171.088 6.94C171.088 5.59 171.133 4.525 171.223 3.745C171.313 2.965 171.568 2.32 171.988 1.81C172.438 1.27 173.128 1 174.058 1C174.988 1 175.663 1.27 176.083 1.81C176.533 2.32 176.803 2.965 176.893 3.745C176.983 4.525 177.028 5.59 177.028 6.94C177.028 8.29 176.983 9.37 176.893 10.18C176.803 10.96 176.533 11.62 176.083 12.16C175.663 12.67 174.988 12.925 174.058 12.925Z" stroke="white" stroke-width="2" mask="url(#path-1-outside-1_13:10)"/>
<path d="M190.394 33.535C187.754 33.535 185.654 33.1 184.094 32.23C182.534 31.36 181.754 30.235 181.754 28.855C181.754 27.955 182.054 27.265 182.654 26.785C183.284 26.275 184.079 26.02 185.039 26.02C185.579 26.02 186.014 26.095 186.344 26.245C186.674 26.395 187.004 26.605 187.334 26.875C187.574 27.085 187.769 27.235 187.919 27.325C188.099 27.415 188.309 27.46 188.549 27.46C189.179 27.46 189.494 27.235 189.494 26.785C189.494 26.365 189.329 26.05 188.999 25.84C188.669 25.6 188.099 25.315 187.289 24.985C186.539 24.685 186.044 24.475 185.804 24.355C184.424 23.695 183.404 22.915 182.744 22.015C182.084 21.115 181.754 20.155 181.754 19.135C181.754 17.995 182.159 16.915 182.969 15.895C183.809 14.845 184.979 14.005 186.479 13.375C188.009 12.715 189.764 12.385 191.744 12.385C193.454 12.385 194.999 12.625 196.379 13.105C197.789 13.585 198.899 14.245 199.709 15.085C200.519 15.895 200.924 16.795 200.924 17.785C200.924 18.715 200.624 19.42 200.024 19.9C199.454 20.38 198.674 20.62 197.684 20.62C197.294 20.62 196.979 20.59 196.739 20.53C196.529 20.44 196.244 20.305 195.884 20.125C195.674 20.005 195.449 19.9 195.209 19.81C194.999 19.72 194.759 19.675 194.489 19.675C194.249 19.675 194.039 19.765 193.859 19.945C193.679 20.095 193.589 20.29 193.589 20.53C193.589 20.98 193.919 21.31 194.579 21.52C196.319 22.09 197.714 22.81 198.764 23.68C199.844 24.55 200.384 25.75 200.384 27.28C200.384 29.23 199.469 30.76 197.639 31.87C195.839 32.98 193.424 33.535 190.394 33.535Z" stroke="white" stroke-width="2" mask="url(#path-1-outside-1_13:10)"/>
<path d="M53.3222 78.535C50.9822 78.535 49.0622 78.01 47.5622 76.96C46.0622 75.88 45.3122 74.335 45.3122 72.325C45.3122 70.585 46.0772 69.205 47.6072 68.185C49.1372 67.165 51.0422 66.655 53.3222 66.655C54.1622 66.655 54.9422 66.73 55.6622 66.88C56.4122 67 56.9222 67.15 57.1922 67.33C57.1922 66.58 56.8772 65.965 56.2472 65.485C55.6172 64.975 54.6572 64.72 53.3672 64.72C52.7972 64.72 52.3322 64.765 51.9722 64.855C51.6122 64.945 51.2222 65.08 50.8022 65.26C50.3822 65.44 49.9922 65.575 49.6322 65.665C49.3022 65.755 48.8522 65.8 48.2822 65.8C47.3222 65.8 46.5722 65.56 46.0322 65.08C45.4922 64.57 45.2222 63.805 45.2222 62.785C45.2222 61.615 45.6422 60.625 46.4822 59.815C47.3522 59.005 48.4322 58.405 49.7222 58.015C51.0122 57.595 52.3022 57.385 53.5922 57.385C56.1422 57.385 58.2722 57.865 59.9822 58.825C61.7222 59.755 62.9972 61 63.8072 62.56C64.6472 64.12 65.0672 65.845 65.0672 67.735C65.0672 68.755 64.9772 69.7 64.7972 70.57C64.6472 71.44 64.4372 72.115 64.1672 72.595C64.5872 72.955 64.9022 73.375 65.1122 73.855C65.3522 74.335 65.4722 74.83 65.4722 75.34C65.4722 76.21 65.1722 76.96 64.5722 77.59C64.0022 78.22 63.2372 78.535 62.2772 78.535C61.5572 78.535 60.9722 78.43 60.5222 78.22C60.0722 78.01 59.5922 77.68 59.0822 77.23C58.3322 77.68 57.5072 78.01 56.6072 78.22C55.7372 78.43 54.6422 78.535 53.3222 78.535ZM54.2222 73.99C54.8522 73.99 55.3472 73.855 55.7072 73.585C56.0972 73.315 56.2922 72.985 56.2922 72.595C56.2922 72.205 56.0972 71.875 55.7072 71.605C55.3472 71.335 54.8522 71.2 54.2222 71.2C53.5922 71.2 53.0822 71.335 52.6922 71.605C52.3322 71.875 52.1522 72.205 52.1522 72.595C52.1522 72.985 52.3322 73.315 52.6922 73.585C53.0822 73.855 53.5922 73.99 54.2222 73.99Z" stroke="white" stroke-width="2" mask="url(#path-1-outside-1_13:10)"/>
<path d="M72.0872 78.445C70.5872 78.445 69.4622 77.89 68.7122 76.78C67.9622 75.67 67.4522 74.035 67.1822 71.875C66.9422 69.685 66.8222 66.64 66.8222 62.74C66.8222 58.99 66.9122 56.065 67.0922 53.965C67.3022 51.865 67.7822 50.185 68.5322 48.925C69.3122 47.665 70.5122 47.035 72.1322 47.035C73.7522 47.035 74.9372 47.665 75.6872 48.925C76.4672 50.185 76.9472 51.865 77.1272 53.965C77.3372 56.065 77.4422 58.99 77.4422 62.74C77.4422 66.43 77.2772 69.415 76.9472 71.695C76.6472 73.945 76.1072 75.64 75.3272 76.78C74.5472 77.89 73.4672 78.445 72.0872 78.445Z" stroke="white" stroke-width="2" mask="url(#path-1-outside-1_13:10)"/>
<path d="M91.7131 78.535C86.2531 78.535 82.7281 76.87 81.1381 73.54C79.5781 70.18 78.7981 66.775 78.7981 63.325C78.7981 60.775 79.0231 58.255 79.4731 55.765C79.9531 53.275 80.7181 51.19 81.7681 49.51C82.8181 47.83 84.1831 46.99 85.8631 46.99C86.9131 46.99 87.8131 47.32 88.5631 47.98C89.3131 48.64 89.6881 49.6 89.6881 50.86C89.6881 51.49 89.6281 52.12 89.5081 52.75C89.3881 53.38 89.2081 54.16 88.9681 55.09C88.9081 55.27 88.7881 55.72 88.6081 56.44C88.4581 57.16 88.3531 57.835 88.2931 58.465C89.6131 57.745 91.1131 57.385 92.7931 57.385C94.4731 57.385 96.0331 57.76 97.4731 58.51C98.9431 59.26 100.128 60.415 101.028 61.975C101.958 63.505 102.423 65.38 102.423 67.6C102.423 69.49 101.988 71.275 101.118 72.955C100.248 74.605 98.9881 75.955 97.3381 77.005C95.7181 78.025 93.8431 78.535 91.7131 78.535ZM91.4431 71.425C92.2531 71.425 92.9581 71.125 93.5581 70.525C94.1881 69.895 94.5031 69.16 94.5031 68.32C94.5031 67.48 94.1881 66.745 93.5581 66.115C92.9581 65.485 92.2531 65.17 91.4431 65.17C90.6331 65.17 89.9281 65.485 89.3281 66.115C88.7281 66.745 88.4281 67.48 88.4281 68.32C88.4281 69.16 88.7281 69.895 89.3281 70.525C89.9281 71.125 90.6331 71.425 91.4431 71.425Z" stroke="white" stroke-width="2" mask="url(#path-1-outside-1_13:10)"/>
<path d="M113.793 78.535C111.603 78.535 109.683 77.995 108.033 76.915C106.383 75.805 105.108 74.275 104.208 72.325C103.338 70.345 102.903 68.065 102.903 65.485C102.903 62.965 103.308 60.985 104.118 59.545C104.928 58.105 106.053 57.385 107.493 57.385C110.043 57.385 111.318 58.69 111.318 61.3C111.318 61.84 111.303 62.32 111.273 62.74C111.243 63.13 111.213 63.475 111.183 63.775C111.063 64.975 111.003 65.935 111.003 66.655C111.003 67.975 111.273 68.98 111.813 69.67C112.353 70.36 113.013 70.705 113.793 70.705C114.603 70.705 115.263 70.375 115.773 69.715C116.313 69.025 116.583 68.005 116.583 66.655C116.583 65.695 116.538 64.81 116.448 64C116.418 63.73 116.388 63.34 116.358 62.83C116.328 62.29 116.313 61.795 116.313 61.345C116.313 58.705 117.588 57.385 120.138 57.385C121.578 57.385 122.688 58.105 123.468 59.545C124.278 60.955 124.683 62.935 124.683 65.485C124.683 69.475 123.753 72.655 121.893 75.025C120.033 77.365 117.333 78.535 113.793 78.535Z" stroke="white" stroke-width="2" mask="url(#path-1-outside-1_13:10)"/>
<path d="M140.898 78.535C139.518 78.535 138.574 78.07 138.064 77.14C137.554 76.21 137.299 74.785 137.299 72.865C137.299 71.455 137.284 70.45 137.254 69.85C137.224 69.22 137.104 68.695 136.894 68.275C136.714 67.855 136.383 67.645 135.904 67.645C135.333 67.645 134.914 67.84 134.644 68.23C134.374 68.59 134.208 69.07 134.148 69.67C134.118 70.24 134.104 71.11 134.104 72.28C134.104 73.72 134.044 74.86 133.924 75.7C133.804 76.51 133.488 77.185 132.979 77.725C132.469 78.235 131.674 78.49 130.594 78.49C127.354 78.49 125.734 74.38 125.734 66.16C125.734 63.37 125.974 61.21 126.454 59.68C126.964 58.12 127.909 57.145 129.288 56.755C129.798 56.605 130.264 56.53 130.684 56.53C131.314 56.53 131.884 56.665 132.394 56.935C132.904 57.205 133.264 57.58 133.474 58.06C133.894 57.82 134.314 57.64 134.734 57.52C135.154 57.4 135.754 57.34 136.534 57.34C137.494 57.34 138.394 57.58 139.234 58.06C140.104 58.51 140.719 59.155 141.079 59.995C141.859 59.095 142.639 58.435 143.419 58.015C144.229 57.565 145.264 57.34 146.523 57.34C148.383 57.34 150.003 57.895 151.383 59.005C152.794 60.085 153.874 61.585 154.624 63.505C155.404 65.395 155.794 67.495 155.794 69.805C155.794 72.385 155.449 74.485 154.758 76.105C154.068 77.725 152.869 78.535 151.159 78.535C150.019 78.535 149.193 78.25 148.684 77.68C148.204 77.11 147.904 76.405 147.784 75.565C147.694 74.695 147.649 73.435 147.649 71.785C147.649 70.345 147.544 69.295 147.334 68.635C147.124 67.975 146.629 67.645 145.849 67.645C145.279 67.645 144.919 67.96 144.769 68.59C144.619 69.19 144.544 70.195 144.544 71.605C144.514 71.875 144.499 72.295 144.499 72.865C144.439 74.785 144.154 76.21 143.644 77.14C143.134 78.07 142.219 78.535 140.898 78.535Z" stroke="white" stroke-width="2" mask="url(#path-1-outside-1_13:10)"/>
</svg>
